<svg width="51" height="73" viewBox="0 0 51 73" fill="none" xmlns="http://www.w3.org/2000/svg">
<path fill-rule="evenodd" clip-rule="evenodd" d="M25.5484 0.2099L16.9156 12.3782L24.6381 23.2635H26.4587L34.1812 12.3782L25.5484 0.2099ZM15.9275 13.8214L17.2808 21.4965L16.3651 22.3858L15.3653 16.6423L1.50512 36.439L24.5378 69.3355L20.3543 45.3023H21.4783L24.9729 65.1215V45.3023H26.1239V65.8119L29.8388 45.3023H31.0039L26.6314 69.2319L49.5917 36.439L36.2407 16.6423L34.8629 24.1827L33.737 23.7814L35.541 13.8214L50.7663 36.1051L51 36.439L50.7663 36.7729L26.0188 72.1184L25.5484 72.7901L25.078 72.1184L0.330533 36.7729L0.0968018 36.439L0.330533 36.1051L15.9275 13.8214ZM25.5484 2.20399L18.3301 12.3782L25.5484 22.553L32.7667 12.3782L25.5484 2.20399ZM16.2389 33.184C16.3604 33.2037 16.4644 33.2297 16.5535 33.2605C16.5973 33.267 16.6445 33.2785 16.6953 33.295C17.1798 33.4521 17.2551 33.9507 16.9566 34.3103C16.8791 34.4664 16.7828 34.6313 16.7173 34.7363L17.7457 35.7709C18.1896 36.2175 18.4776 36.5205 18.6574 36.7356L18.668 36.7272C18.7375 36.8011 18.8589 36.9081 18.9161 36.8919C18.7524 36.4093 18.7021 35.907 18.7771 35.4115C18.9824 34.0557 19.7013 32.9921 20.9382 32.2144C21.5556 31.8261 21.7679 31.5656 21.6727 31.3128C21.5808 31.0687 21.4204 31.022 21.2076 31.1775C21.1024 31.2544 21.0066 31.3809 20.9948 31.4586C20.9593 31.6926 20.7744 31.5532 20.5967 31.1585C20.4119 30.7479 20.3137 30.7021 20.2825 31.0119C20.2524 31.3116 20.1166 31.3232 19.9469 31.0406C19.8089 30.8108 19.7949 30.8045 19.6199 30.8923C19.5194 30.9427 19.339 31.0047 19.2191 31.0301L19.0012 31.0762L19.1323 30.8236C19.2044 30.6847 19.2534 30.5612 19.2412 30.5492C19.229 30.5373 19.1291 30.5554 19.0191 30.5896C18.9091 30.6238 18.6618 30.6674 18.4696 30.6866L18.12 30.7215L18.2163 30.4056C18.2693 30.2318 18.3477 29.9726 18.3905 29.8295C18.4856 29.5117 18.5601 29.4786 18.8832 29.6112C19.2155 29.7476 20.0811 29.921 20.4298 29.921C20.7311 29.921 20.7555 29.9539 20.6021 30.1531C20.4568 30.3419 20.4754 30.3735 20.7117 30.3395C20.8275 30.3228 21.1072 30.3477 21.3333 30.3948C21.4551 30.4202 21.5506 30.4357 21.6243 30.4414L21.6045 30.3678C21.586 30.3638 21.565 30.3222 21.5408 30.2746C21.5089 30.2116 21.4716 30.1379 21.4279 30.127C21.3146 30.0987 21.087 30.0719 20.9222 30.0675C20.8713 30.0206 20.8723 29.9412 20.8733 29.8649C20.8744 29.7804 20.8754 29.6997 20.8062 29.6703C20.774 29.6566 20.7113 29.6549 20.6129 29.6549C20.1563 29.6549 19.1551 29.4453 18.797 29.2748C18.3933 29.0825 18.1327 28.7168 18.2895 28.5627C18.351 28.5023 18.528 28.5568 19.0406 28.7938C19.9283 29.2042 20.7894 29.4525 21.325 29.4525C21.3933 29.4525 21.442 29.4595 21.4836 29.485L21.5745 29.4367C21.5329 29.3712 21.4875 29.3561 21.4387 29.3399C21.3918 29.3243 21.3419 29.3077 21.2892 29.2445C21.0789 28.9919 20.8489 28.6689 20.7781 28.5268L20.6496 28.2685L20.5754 28.4584C20.5347 28.5628 20.5013 28.6953 20.5013 28.7528C20.5013 28.8434 20.4761 28.8412 20.3125 28.7369C20.2087 28.6707 20.0833 28.561 20.034 28.4931C19.896 28.3032 19.8394 28.3454 19.8714 28.6145L19.9005 28.8594L19.6799 28.7325C19.5586 28.6628 19.4266 28.5464 19.3867 28.4738C19.3468 28.4013 19.1037 28.1235 18.8465 27.8565C18.5797 27.5796 18.3618 27.2887 18.3392 27.179C18.3173 27.0734 18.2696 26.8937 18.2332 26.7798C18.0438 26.1878 18.2668 25.739 18.7505 25.739C19.1233 25.739 19.3625 26.0011 19.314 26.3563C19.2823 26.5884 19.2931 26.6198 19.3915 26.5817C19.4543 26.5573 19.6757 26.5205 19.8834 26.4999C20.0911 26.4793 20.3445 26.4211 20.4465 26.3705C20.5484 26.32 20.7894 26.2787 20.982 26.2787C21.4001 26.2787 21.6717 26.1538 21.8806 25.8656C22.0094 25.6879 22.023 25.6221 21.9629 25.4656L21.8909 25.2783L22.2909 25.2327C22.8088 25.1736 23.0353 25.2269 23.3084 25.472C23.6667 25.7934 23.8657 25.7033 23.8657 25.2197C23.8657 24.9009 23.8881 24.8897 24.3006 25.0022C24.4621 25.0463 24.6792 25.1922 24.8621 25.3798L25.1603 25.6855L25.3026 25.4114C25.3809 25.2607 25.4449 25.0886 25.4449 25.029C25.4449 24.9476 25.4835 24.9323 25.5994 24.9675C25.9133 25.0628 26.2397 25.2587 26.4239 25.4623C26.5774 25.632 26.6664 25.6716 26.8942 25.6716C27.1243 25.6716 27.2191 25.6284 27.4178 25.4333L27.6604 25.195L27.6149 25.4741C27.5591 25.8172 27.4303 26.0687 27.1499 26.3825L26.935 26.623L27.0717 26.8049C27.3378 27.1591 27.3795 27.4318 27.3426 28.5781C27.3234 29.1759 27.2966 29.6758 27.2831 29.6891C27.2761 29.696 27.2225 29.6593 27.1428 29.5952C27.121 29.5988 27.0877 29.6297 27.0687 29.7206C27.0865 29.7689 27.0928 29.8213 27.0928 29.8861C27.0928 30.0118 27.127 30.2 27.1688 30.3045C27.3266 30.6988 27.3627 30.8703 27.2772 30.8204C27.1464 30.7441 27.0102 30.655 26.8773 30.5604C26.8662 30.615 26.8576 30.673 26.8528 30.7347C26.879 30.7992 26.8903 30.8769 26.9014 30.991C26.9199 31.1801 26.9987 31.41 27.0866 31.5312L27.2395 31.7422H27.2196C27.3023 31.8418 27.3998 31.9353 27.5126 32.0111L29.0154 32.0504C30.4109 32.0869 30.7031 32.0765 31.1782 31.9736C31.6158 31.8788 32.001 31.8575 33.0731 31.8686C34.3279 31.8816 34.4586 31.8711 35.0107 31.714C35.7362 31.5074 35.9522 31.4009 36.1763 31.1393C36.6939 30.5351 36.5307 29.7391 35.8266 29.4331C35.4425 29.2662 34.5694 29.257 33.829 29.4122C32.3187 29.7287 30.8983 29.7041 30.0346 29.3465C29.2136 29.0066 29.0977 28.975 28.9184 29.042C28.7194 29.1163 28.6034 29.3041 28.5834 29.5844C28.5755 29.6953 28.5501 29.786 28.5269 29.7861C28.5037 29.7861 28.4033 29.6707 28.3038 29.5296C28.0778 29.2092 28.0606 28.7743 28.2612 28.4511L28.3991 28.2289L28.1954 27.9789C27.4844 27.1062 27.496 26.1479 28.2262 25.4277C28.6383 25.0213 29.3948 24.6416 30.0344 24.5202C30.6253 24.4081 31.8671 24.4773 32.4484 24.6549C33.3542 24.9316 34.6087 25.689 35.6411 26.5827C36.3182 27.1687 36.6994 27.4254 36.8928 27.4254C37.04 27.4254 37.0546 27.403 37.0171 27.2355C36.9865 27.0986 37.0152 26.9949 37.1196 26.8645C37.3467 26.5808 37.7351 26.6268 37.9095 26.958C38.2085 27.5261 37.8211 28.1269 37.1558 28.1269C36.6349 28.1269 36.2786 27.9539 35.7115 27.4258C35.1121 26.8676 34.587 26.4485 34.5422 26.4926C34.4661 26.5674 34.7174 27.3322 34.8537 27.4407C35.0559 27.6015 34.8949 27.5918 34.5082 27.4199C34.1486 27.26 33.8537 27.003 33.7021 26.7175L33.5948 26.5156L33.5014 26.7805C33.4501 26.9262 33.3544 27.1047 33.2887 27.1772C33.1587 27.3207 32.7928 27.4928 32.6175 27.4928C32.5234 27.4928 32.5275 27.4654 32.6456 27.3025C32.7214 27.1979 32.8196 26.9714 32.8637 26.7993C32.9352 26.5203 32.9278 26.4537 32.7957 26.1857C32.6491 25.8881 32.4536 25.7145 32.0879 25.557C31.8729 25.4644 31.8562 25.5079 32.0016 25.7819C32.1517 26.0645 32.1335 26.5884 31.9643 26.8574C31.8042 27.1119 31.4877 27.3217 31.162 27.3894L30.9399 27.4355L31.1097 27.1437C31.3259 26.7721 31.3402 26.2735 31.1437 25.9568C30.9745 25.6842 30.4274 25.3343 30.1704 25.3343C29.9856 25.3343 29.9804 25.3439 30.015 25.6209C30.0671 26.0377 29.7766 26.4991 29.6832 26.1481C29.622 25.9181 29.3278 25.8313 28.9954 25.9451C28.372 26.1585 28.2116 26.8574 28.6777 27.3299C28.8027 27.4565 28.9221 27.5599 28.943 27.5597C28.9639 27.5595 29.0324 27.4706 29.0952 27.3622C29.3172 26.9788 29.931 26.8199 30.292 27.0522L30.467 27.1648L30.1703 27.3119C29.7879 27.5014 29.6559 27.7544 29.7634 28.0919C29.8061 28.2261 29.8906 28.3965 29.9511 28.4707C30.0421 28.5825 30.0675 28.5883 30.0985 28.5045C30.1614 28.3346 30.5873 27.9512 30.6795 27.9814C30.7272 27.997 30.7751 28.068 30.7861 28.1391C30.8391 28.4851 30.8856 28.5562 31.1567 28.7059C31.4168 28.8494 31.5313 28.8667 32.206 28.8639C32.6307 28.8621 33.2498 28.8077 33.6156 28.74C33.9744 28.6736 34.6078 28.6169 35.0232 28.614C35.7156 28.6091 35.8143 28.6248 36.2094 28.8027C37.5009 29.3841 37.7204 30.8931 36.6475 31.815L36.2962 32.117L36.5698 32.496C36.7203 32.7044 36.9267 33.0829 37.0284 33.3372C37.1948 33.753 37.2132 33.8841 37.2116 34.6426C37.2097 35.5805 37.1558 35.8392 36.6702 37.2417C36.1921 38.6225 36.1296 39.4525 36.4482 40.1929C36.6049 40.5571 36.8506 40.7806 37.0944 40.7806C37.4892 40.7806 37.3288 41.2774 36.8096 41.6624C36.3823 41.9794 36.2702 42.1674 36.2762 42.5572C36.2805 42.8374 36.384 43.0829 36.715 43.5977C36.7928 43.7188 36.8374 43.8671 36.8139 43.9271C36.7525 44.0844 36.1837 43.9986 35.9618 43.7985C35.8433 43.6917 35.7848 43.6724 35.7629 43.7328C35.6489 44.0468 35.245 44.1077 34.9412 43.8566L34.7457 43.695L34.5545 43.8566C34.3013 44.0706 33.9964 44.0697 33.853 43.8547L33.7439 43.6911L33.4985 43.8547C33.1637 44.0779 33.0383 44.071 33.0979 43.8328C33.2096 43.3866 33.6258 43.0655 34.2899 42.9133C35.0668 42.7353 35.0999 42.6775 35.0335 41.6119C34.968 40.5603 34.9106 40.4828 33.5333 39.5886C33.4404 39.5282 33.3535 39.4707 33.2718 39.4151L33.178 39.465L33.1992 39.48L32.9972 39.7423C32.7443 40.0706 32.7309 40.3664 32.9571 40.6247C33.0962 40.7835 33.1735 40.8129 33.4377 40.8075C33.7138 40.8018 33.7522 40.8184 33.7522 40.9424C33.752 41.0201 33.5821 41.2927 33.3746 41.548C32.8826 42.1535 32.7987 42.4209 32.9513 42.8967C33.2515 43.8323 32.8936 44.3021 32.2218 43.8543L31.9765 43.6907L31.8649 43.858C31.7713 43.9983 31.7081 44.0219 31.4726 44.0047C31.2771 43.9904 31.1688 43.9431 31.1161 43.8492C31.0745 43.775 31.0331 43.702 31.024 43.6869C31.0149 43.6718 30.9315 43.7401 30.8385 43.8387C30.6254 44.0645 30.3658 44.0694 30.1442 43.8517L29.975 43.6855L29.7258 43.8517C29.5887 43.9431 29.4184 44.0179 29.3474 44.0179C29.2414 44.0179 29.2264 43.9847 29.2635 43.8324C29.3271 43.5711 29.3886 43.4681 29.5945 43.2789C29.7496 43.1364 29.8606 43.1082 30.3889 43.0766C30.9439 43.0434 31.0215 43.0218 31.1935 42.8525L31.3838 42.6652L31.3613 41.7059C31.3346 40.5715 31.2887 40.4372 30.6309 39.5693C30.0524 38.806 29.8405 38.3554 29.8396 37.8869L29.8389 37.5231L29.8396 37.5231C29.8397 37.509 29.84 37.4953 29.8405 37.4818C28.8136 37.4643 28.1589 37.6632 26.4749 38.4544C25.8775 38.735 25.3069 38.9866 25.1239 39.0512C24.9699 39.1241 24.8239 39.2029 24.6968 39.274C24.5841 39.4762 24.4629 39.6809 24.3338 39.8864C23.8225 40.7001 23.9557 41.1382 24.7422 41.2297C24.9399 41.2527 25.1017 41.2931 25.1017 41.3195C25.1017 41.419 24.6876 41.9238 24.5374 42.0074C24.4513 42.0554 24.2108 42.156 24.0031 42.231C23.627 42.3668 23.6256 42.3685 23.6394 42.6363C23.6471 42.7842 23.6731 43.0304 23.6973 43.1833C23.7338 43.414 23.7099 43.5103 23.557 43.7481C23.3745 44.0322 23.3698 44.0345 23.0579 43.9925C22.8847 43.9691 22.6881 43.9013 22.6211 43.8418C22.5087 43.7418 22.485 43.7445 22.315 43.8758C22.0722 44.0633 21.692 44.0631 21.4884 43.8751L21.3335 43.7322L21.1485 43.8751C20.9067 44.0621 20.5421 44.0642 20.4104 43.8794L20.3115 43.7407L20.0804 43.8792L20.0802 43.8794C19.8133 44.0393 19.6774 44.0561 19.6774 43.9292C19.6774 43.6949 19.9172 43.193 20.1022 43.0401C20.2929 42.8824 20.3577 42.87 20.9519 42.8775C21.4996 42.8844 21.6307 42.864 21.8344 42.7403C22.4685 42.3553 22.5306 41.7728 22.0825 40.4097C21.98 40.0979 21.8951 39.823 21.8266 39.5761C21.7877 39.5703 21.747 39.5633 21.7051 39.555C21.6774 39.5747 21.5833 39.5481 21.4515 39.4903C21.2584 39.4293 21.0619 39.3378 20.9042 39.2037C20.8977 39.1982 20.8916 39.1924 20.8857 39.1862C20.7017 39.0738 20.5131 38.9469 20.3506 38.8213C20.2952 38.8906 20.2296 38.9695 20.1629 39.0437C20.0059 39.2403 19.599 39.5776 19.3879 39.6639C19.2475 39.7213 19.1084 39.7642 19.0789 39.7591C19.0494 39.7541 18.9504 39.7361 18.8591 39.7192C18.7671 39.7022 18.4425 39.4352 18.1323 39.1213C17.824 38.8094 17.5336 38.5542 17.4872 38.5542C17.3296 38.5542 17.1371 38.6933 17.1371 38.8071C17.1371 38.9112 17.1275 38.9109 17.0169 38.8022C16.9184 38.7054 16.8968 38.5618 16.8968 38.0057C16.8968 37.3402 16.893 37.3243 16.7005 37.1735C16.6591 37.1411 16.6269 37.1124 16.604 37.0873C16.5186 37.0534 16.4189 37.041 16.3192 37.0824C16.2865 37.1068 16.2607 37.1216 16.2404 37.1271C16.1193 37.2142 16.0295 37.3244 15.9681 37.4223C16.3379 37.3765 16.5835 37.6198 16.3507 37.8095C16.2729 37.873 16.1982 37.872 16.0092 37.8049C15.8761 37.7576 15.7473 37.7385 15.7229 37.7624C15.6464 37.8377 15.7628 38.1547 15.9258 38.3148C16.0774 38.4637 16.0784 38.4732 15.9595 38.6174C15.7073 38.9233 15.7131 39.4488 15.9715 39.7026C16.1433 39.8714 16.2191 39.871 16.2643 39.701C16.3064 39.5428 16.5331 39.5213 16.6536 39.664C16.6998 39.7186 16.716 39.8251 16.6903 39.9047C16.6349 40.0761 16.2707 40.3078 16.0556 40.3078C15.8397 40.3081 15.8624 40.4663 16.1073 40.6688L16.3136 40.8393L16.0044 40.8848C15.7474 40.9227 15.6952 40.9551 15.6952 41.0763C15.6911 41.2607 15.5842 41.5307 15.4131 41.522C15.2215 41.5123 15.1459 41.1218 15.1459 40.9932C15.1459 40.9597 15.0146 40.9111 14.8541 40.8852L14.5622 40.8383L14.7511 40.6886C14.9924 40.4973 15.0015 40.3079 14.7693 40.3079C14.6755 40.3079 14.5009 40.222 14.3813 40.117C14.2033 39.9608 14.1722 39.8935 14.2099 39.7461C14.2674 39.5209 14.4771 39.5068 14.6305 39.7177L14.7408 39.8695L14.909 39.6802C15.1235 39.4388 15.1401 38.9528 14.9437 38.6601L14.8111 38.4625L14.9785 38.2671C15.2112 37.9954 15.2021 37.8063 14.957 37.8227C14.6375 37.8441 14.4592 37.7534 14.4592 37.5695C14.4592 37.3724 14.6323 37.2874 14.8107 37.3969C15.0303 37.5316 15.1459 37.492 15.1459 37.282V37.2813C15.1396 37.1463 15.0642 37.037 15.0067 36.9537C14.9702 36.9008 14.9409 36.8584 14.9409 36.8263C14.9409 36.7273 14.9409 36.5291 14.8477 36.331C14.7818 36.1909 14.7625 36.1003 14.7239 35.9192L14.7239 35.9192C14.7079 35.8441 14.6887 35.7536 14.6614 35.6376C14.654 35.6064 14.649 35.5776 14.646 35.551C14.6284 35.4875 14.631 35.4367 14.6526 35.3992C14.6725 35.3172 14.7182 35.2658 14.7603 35.2183C14.7903 35.1844 14.8185 35.1526 14.8344 35.1131C14.8244 35.097 14.8184 35.0805 14.8157 35.0631C14.8021 34.9759 14.833 34.9195 14.91 34.8933C14.9571 34.8322 15.0246 34.7749 15.0896 34.7286C14.8211 34.6965 14.5763 34.6358 14.4016 34.547C13.7678 34.2251 13.7503 33.4663 14.3728 33.2975C14.4287 33.2823 14.4811 33.273 14.5296 33.2694C14.6457 33.2259 14.7637 33.195 14.8581 33.1759C14.8096 32.9362 14.8024 32.429 14.8024 30.9735C14.8024 27.5535 15.0146 25.9514 15.6252 24.7606C15.9486 24.1298 16.3137 23.6892 16.7931 23.3508C17.1653 23.0882 17.1855 23.0892 17.0414 23.3643C16.6797 24.0551 16.4052 26.9349 16.3362 30.7636C16.3068 32.3956 16.2912 32.9476 16.2389 33.184Z" fill="black"/>
</svg>
